<?xml version="1.0" standalone="no"?>
<!DOCTYPE svg PUBLIC "-//W3C//DTD SVG 20010904//EN"
 "http://www.w3.org/TR/2001/REC-SVG-20010904/DTD/svg10.dtd">
<svg version="1.0" xmlns="http://www.w3.org/2000/svg"
 width="700.000000pt" height="700.000000pt" viewBox="0 0 700.000000 700.000000"
 preserveAspectRatio="xMidYMid meet">
<metadata>
Created by potrace 1.11, written by Peter Selinger 2001-2013
</metadata>
<g transform="translate(0.000000,700.000000) scale(0.100000,-0.100000)"
fill="#000000" stroke="none">
<path d="M3 5108 c4 -2024 1 -1926 52 -2218 117 -679 447 -1323 940 -1829 565
-580 1275 -931 2100 -1038 193 -24 613 -24 810 0 975 123 1818 611 2404 1391
306 408 532 923 630 1436 42 225 55 375 55 645 1 339 -24 548 -99 852 -239
962 -879 1778 -1765 2250 -287 153 -657 281 -985 343 -303 56 -202 53 -2253
57 l-1893 4 4 -1893z m3576 633 c58 -46 114 -78 262 -152 l139 -70 35 -69 35
-70 0 -158 0 -158 -59 -90 c-102 -154 -228 -256 -336 -271 -25 -3 -45 -10 -45
-14 0 -5 -79 -9 -176 -9 l-175 0 -43 29 c-52 36 -199 190 -265 277 -48 63 -49
68 -57 152 -16 201 -4 275 61 364 43 58 129 127 213 171 34 17 64 39 67 47 12
38 56 49 184 50 120 0 124 -1 160 -29z m-624 -1129 c27 -17 62 -20 275 -25
260 -6 346 -19 440 -67 92 -47 165 -141 197 -254 9 -33 16 -124 20 -256 5
-177 8 -209 24 -236 16 -26 19 -52 19 -149 0 -105 -2 -120 -22 -148 -22 -30
-23 -43 -29 -317 -4 -157 -8 -467 -10 -690 -2 -363 0 -410 15 -458 22 -64 65
-109 114 -118 20 -4 60 -15 87 -24 30 -11 97 -21 165 -25 203 -12 313 -42 389
-105 20 -17 89 -66 153 -108 l118 -77 0 -42 c0 -107 -45 -221 -107 -272 l-38
-31 -635 0 c-617 0 -636 1 -665 20 -25 17 -47 20 -138 20 -95 0 -113 -3 -139
-21 -26 -19 -51 -23 -176 -30 -248 -13 -461 -11 -527 6 -175 46 -295 189 -282
336 3 31 12 71 22 89 22 43 87 113 145 155 l48 35 215 0 c204 0 522 13 615 26
l42 5 0 341 0 341 -27 55 c-22 46 -27 71 -31 163 -4 104 -3 110 27 174 l31 67
0 418 0 417 -55 12 c-31 7 -86 28 -123 47 l-67 34 -296 0 -296 0 -109 99 c-60
54 -137 128 -171 164 l-63 65 0 96 0 95 63 63 c35 35 90 78 123 95 l59 32 285
1 c259 0 288 -2 315 -18z"/>
</g>
</svg>
